<?xml version="1.0" encoding="UTF-8" standalone="no"?><!DOCTYPE svg PUBLIC "-//W3C//DTD SVG 1.1//EN" "http://www.w3.org/Graphics/SVG/1.1/DTD/svg11.dtd"><svg width="100%" height="100%" viewBox="0 0 2500 2209" version="1.1" xmlns="http://www.w3.org/2000/svg" xmlns:xlink="http://www.w3.org/1999/xlink" xml:space="preserve" xmlns:serif="http://www.serif.com/" style="fill-rule:evenodd;clip-rule:evenodd;stroke-linejoin:round;stroke-miterlimit:2;"><path d="M565.5,183.458c277.067,208.004 575.083,629.75 684.5,856.084c109.425,-226.317 407.425,-648.084 684.5,-856.084c199.917,-150.087 523.833,-266.216 523.833,103.313c0,73.8 -42.312,619.958 -67.129,708.625c-86.262,308.266 -400.6,386.891 -680.208,339.304c488.75,83.183 613.083,358.717 344.571,634.25c-509.959,523.292 -732.959,-131.296 -790.125,-299.025c-10.475,-30.749 -15.377,-45.133 -15.449,-32.902c-0.073,-12.232 -4.974,2.153 -15.449,32.902c-57.141,167.729 -280.137,822.333 -790.125,299.025c-268.516,-275.533 -144.187,-551.083 344.571,-634.25c-279.617,47.587 -593.958,-31.038 -680.208,-339.304c-24.818,-88.675 -67.129,-634.834 -67.129,-708.625c-0,-369.529 323.925,-253.4 523.833,-103.313l0.014,0Z" style="fill:#FFFBF2;fill-rule:nonzero;"/></svg>