<?xml version="1.0" encoding="UTF-8"?>
<svg xmlns="http://www.w3.org/2000/svg" xmlns:xlink="http://www.w3.org/1999/xlink" viewBox="0 0 231.74 986.43">
  <defs>
    <style>
      .cls-1, .cls-2, .cls-3, .cls-4, .cls-5, .cls-6, .cls-7, .cls-8 {
        fill: none;
      }

      .cls-2 {
        stroke: #e6ca56;
      }

      .cls-2, .cls-3, .cls-4, .cls-9, .cls-5, .cls-6, .cls-7, .cls-8 {
        mix-blend-mode: multiply;
      }

      .cls-2, .cls-3, .cls-4, .cls-5, .cls-6, .cls-7, .cls-8 {
        stroke-miterlimit: 10;
        stroke-width: 40px;
      }

      .cls-10 {
        fill: #c982a9;
      }

      .cls-11 {
        isolation: isolate;
      }

      .cls-3 {
        stroke: #c983a9;
      }

      .cls-4 {
        stroke: #584189;
      }

      .cls-12 {
        clip-path: url(#clippath-1);
      }

      .cls-5 {
        stroke: #77a8ce;
      }

      .cls-13 {
        fill: #a7559b;
      }

      .cls-6 {
        stroke: #4ea459;
      }

      .cls-14 {
        fill: #77a8ce;
      }

      .cls-15 {
        clip-path: url(#clippath);
      }

      .cls-16 {
        fill: #e5c955;
      }

      .cls-7 {
        stroke: #ab53a2;
      }

      .cls-8 {
        stroke: #dc643a;
      }
    </style>
    <clipPath id="clippath">
      <rect class="cls-1" width="231.74" height="986.43"/>
    </clipPath>
    <clipPath id="clippath-1">
      <rect class="cls-1" x="-1258.64" y="-56.3" width="441.96" height="443.41"/>
    </clipPath>
  </defs>
    <g class="cls-11" transform="rotate(180 115.87 493.215)">
  <g class="cls-11">
    <g id="Layer_1" data-name="Layer 1">
      <g class="cls-15">
        <g>
          <g>
            <path class="cls-3" d="M209.62,635.07c0-115.39-93.54-208.94-208.94-208.94"/>
            <path class="cls-3" d="M.69,491.6c79.24,0,143.47,64.23,143.47,143.47"/>
            <path class="cls-3" d="M.69,557.43c42.88,0,77.65,34.76,77.65,77.65"/>
          </g>
          <path class="cls-7" d="M228.97,785.92c-83.31,0-150.85-67.54-150.85-150.85"/>
          <path class="cls-7" d="M228.41,716.71c-46.53,0-84.25-36.55-84.25-81.64"/>
          <path class="cls-14" d="M-1.01,605.76c16.51,0,29.89,13.38,29.89,29.89s-13.38,29.89-29.89,29.89"/>
          <g>
            <path class="cls-5" d="M144.02,635.05c0,79.24-64.23,143.47-143.47,143.47"/>
            <path class="cls-5" d="M78.2,635.05c0,42.88-34.76,77.65-77.65,77.65"/>
          </g>
          <g>
            <path class="cls-8" d="M209.6,987.42c0-115.39-93.54-208.94-208.94-208.94"/>
            <path class="cls-8" d="M.66,843.95c79.24,0,143.47,64.23,143.47,143.47"/>
          </g>
          <path class="cls-8" d="M.57,909.8l.09-.03c42.88,0,77.65,34.76,77.65,77.65"/>
          <g>
            <path class="cls-6" d="M227.87,130.3c-117.51,0-212.77,95.26-212.77,212.77"/>
            <path class="cls-6" d="M81.78,343.06c0-80.69,65.41-146.1,146.1-146.1"/>
            <path class="cls-6" d="M149.65,342.79c0-43.67,35.4-79.07,79.07-79.07"/>
          </g>
          <path class="cls-4" d="M-6.42,208.94C108.98,208.94,202.52,115.4,202.52,0"/>
          <path class="cls-4" d="M137.05,0c0,79.24-64.23,143.47-143.47,143.47"/>
          <path class="cls-2" d="M149.72,342.73c0,82.31-66.72,149.03-149.03,149.03"/>
          <path class="cls-2" d="M81.63,343.05c0,45.91-36.11,83.13-80.66,83.13"/>
        </g>
      </g>
      <g class="cls-12">
        <g>
          <g class="cls-9">
            <path class="cls-13" d="M111.95,388.74c-59.65,0-115.74-23.23-157.92-65.41-42.18-42.18-65.41-98.26-65.41-157.92h39.02c0,101.63,82.68,184.31,184.31,184.31v39.02Z"/>
          </g>
          <g class="cls-9">
            <path class="cls-13" d="M111.95,324.88c-87.93,0-159.47-71.54-159.47-159.47H-8.5c0,66.41,54.03,120.45,120.45,120.45v39.02Z"/>
          </g>
          <g class="cls-9">
            <path class="cls-10" d="M-15.81,388.92h-39.02c0-91.9,74.76-166.66,166.66-166.66v39.02c-70.38,0-127.64,57.26-127.64,127.64Z"/>
          </g>
          <g class="cls-9">
            <path class="cls-10" d="M51.7,388.92H12.68c0-54.67,44.48-99.15,99.15-99.15v39.02c-33.16,0-60.13,26.97-60.13,60.13Z"/>
          </g>
          <g class="cls-9">
            <path class="cls-16" d="M111.02,167.27c-59.65,0-115.74-23.23-157.92-65.41C-89.08,59.68-112.31,3.6-112.31-56.05h39.02c0,101.63,82.68,184.31,184.31,184.31v39.02Z"/>
          </g>
          <g class="cls-9">
            <path class="cls-16" d="M111.02,103.41C23.09,103.41-48.45,31.88-48.45-56.05H-9.43c0,66.41,54.03,120.45,120.45,120.45v39.02Z"/>
          </g>
        </g>
      </g>
    </g>
  </g>
  </g>
</svg>