<?xml version="1.0" encoding="UTF-8"?>
<svg id="Layer_1" data-name="Layer 1" xmlns="http://www.w3.org/2000/svg" viewBox="0 0 534.21 546.66">
  <defs>
    <style>
      .cls-1 {
        fill: #db6439;
      }

      .cls-2 {
        fill: #c982a9;
      }

      .cls-3 {
        fill: #a7559b;
      }

      .cls-4 {
        fill: #4ca258;
      }

      .cls-5 {
        fill: #e5c955;
      }
    </style>
  </defs>
  <g transform="translate(534.21, 0) rotate(90)">
    <path class="cls-3" d="M277.42,365.17h-127.45v-24.74h127.45c45.38,0,82.3-36.92,82.3-82.3v-36.1l-.04-155.49h24.74s.04,155.49.04,155.49v36.11c0,59.02-48.02,107.04-107.04,107.04Z"/>
    <path class="cls-4" d="M24.74,507.56H0v-56.25c0-61.14,49.74-110.88,110.88-110.88h39.29v24.74h-39.29c-47.5,0-86.14,38.64-86.14,86.14v56.25Z"/>
    <polygon class="cls-3" points="287.2 120.23 269.7 102.74 372.44 0 474.74 102.3 457.24 119.79 372.44 34.99 287.2 120.23"/>
    <path class="cls-5" d="M188.27,533.13h-30.93c0-38.19,14.87-74.09,41.87-101.09,27-27,62.9-41.87,101.09-41.87v30.93c-61.78,0-112.04,50.26-112.04,112.04Z"/>
    <path class="cls-2" d="M300.52,420.65v-30.93c29.3,0,57.29-12.77,78.82-35.97,21.11-22.74,33.21-53.07,33.21-83.21v-58.2h30.93v58.2c0,37.85-15.12,75.85-41.47,104.25-13.17,14.18-28.41,25.38-45.32,33.27-17.89,8.35-36.79,12.59-56.17,12.59Z"/>
    <path class="cls-1" d="M235.83,534.21h-24.74c0-48.48,39.34-87.95,87.78-88.14l1.66-.07c44.41,0,86.6-18.69,118.78-52.63,15.5-16.34,27.69-35.2,36.25-56.07,8.81-21.47,13.27-43.92,13.27-66.75v-57.72h24.74v57.72c0,26.06-5.09,51.68-15.12,76.14-9.72,23.7-23.58,45.13-41.19,63.7-17.79,18.76-38.41,33.54-61.29,43.93-23.89,10.84-49.15,16.37-75.08,16.42l-1.65.07c-34.96,0-63.4,28.44-63.4,63.4Z"/>
    <polyline class="cls-2" points="359.12 234.41 453.11 140.42 546.66 233.97"/>
  </g>
</svg>
