<?xml version="1.0" encoding="UTF-8"?>
<svg xmlns="http://www.w3.org/2000/svg" xmlns:xlink="http://www.w3.org/1999/xlink" viewBox="0 0 1365.57 443.9">
  <defs>
    <style>
      .cls-1, .cls-2, .cls-3, .cls-4, .cls-5, .cls-6, .cls-7, .cls-8, .cls-9 {
        fill: none;
      }

      .cls-2 {
        stroke: #e6ca56;
      }

      .cls-2, .cls-3, .cls-4, .cls-5, .cls-6, .cls-7, .cls-8, .cls-9 {
        mix-blend-mode: multiply;
        stroke-miterlimit: 10;
        stroke-width: 40px;
      }

      .cls-10 {
        isolation: isolate;
      }

      .cls-3 {
        stroke: #c983a9;
      }

      .cls-4 {
        stroke: #584189;
      }

      .cls-5 {
        stroke: #77a8ce;
      }

      .cls-6 {
        stroke: #4ea459;
      }

      .cls-11 {
        fill: #77a8ce;
      }

      .cls-7 {
        stroke: #363133;
      }

      .cls-12 {
        clip-path: url(#clippath);
      }

      .cls-8 {
        stroke: #ab53a2;
      }

      .cls-9 {
        stroke: #dc643a;
      }
    </style>
    <clipPath id="clippath">
      <rect class="cls-1" width="1365.57" height="443.9"/>
    </clipPath>
  </defs>
  <g class="cls-10">
    <g id="Layer_1" data-name="Layer 1">
      <g class="cls-12">
        <g>
          <path class="cls-8" d="M188.53,221.14C188.53,105.75,94.98,12.21-20.41,12.21"/>
          <path class="cls-8" d="M-20.13,78.51c79.24,0,143.47,64.23,143.47,143.47"/>
          <g>
            <path class="cls-3" d="M684.24,12.21c-115.39,0-208.94,93.54-208.94,208.94"/>
            <path class="cls-3" d="M540.77,221.14c0-79.24,64.23-143.47,143.47-143.47"/>
            <path class="cls-3" d="M606.59,221.14c0-42.88,34.76-77.65,77.65-77.65"/>
          </g>
          <path class="cls-4" d="M684.08,364.73c-79.24,0-143.47-64.23-143.47-143.47"/>
          <path class="cls-4" d="M684.08,298.91c-42.88,0-77.65-34.76-77.65-77.65"/>
          <path class="cls-5" d="M131.11-6.58c0,83.31-67.54,150.85-150.85,150.85"/>
          <path class="cls-5" d="M61.91-6.58c0,45.09-36.55,81.64-81.64,81.64"/>
          <path class="cls-7" d="M331.68,143.43c-82.31,0-149.03-66.72-149.03-149.03"/>
          <path class="cls-7" d="M331.68,75.06c-44.55,0-80.66-36.11-80.66-80.66"/>
          <path class="cls-6" d="M123.22,222.1c0,115.39,93.54,208.94,208.94,208.94"/>
          <path class="cls-6" d="M331.88,364.73c-79.24,0-143.47-64.23-143.47-143.47"/>
          <path class="cls-6" d="M331.88,298.91c-42.88,0-77.65-34.76-77.65-77.65"/>
          <path class="cls-9" d="M190.59,449.84c0-115.39-93.54-208.94-208.94-208.94"/>
          <path class="cls-9" d="M-18.34,306.37c79.24,0,143.47,64.23,143.47,143.47"/>
          <path class="cls-2" d="M331.72,430.19c115.39,0,208.94-93.54,208.94-208.94"/>
          <path class="cls-2" d="M475.19,221.26c0,79.24-64.23,143.47-143.47,143.47"/>
          <path class="cls-2" d="M331.73,143.52c42.88,0,77.65,34.76,77.65,77.65l-.02.09c0,42.88-34.76,77.65-77.65,77.65"/>
          <circle class="cls-11" cx="683.82" cy="222.84" r="29.89"/>
          <path class="cls-8" d="M1179.8,221.28c0,115.39,93.54,208.94,208.94,208.94"/>
          <path class="cls-8" d="M1388.74,364.75c-79.24,0-143.47-64.23-143.47-143.47"/>
          <path class="cls-6" d="M684.18,430.33c115.39,0,208.94-93.54,208.94-208.94"/>
          <path class="cls-6" d="M827.65,221.4c0,79.24-64.23,143.47-143.47,143.47"/>
          <path class="cls-6" d="M761.82,221.4c0,42.88-34.76,77.65-77.65,77.65"/>
          <g>
            <path class="cls-5" d="M684.34,77.81c79.24,0,143.47,64.23,143.47,143.47"/>
            <path class="cls-5" d="M684.34,143.63c42.88,0,77.65,34.76,77.65,77.65"/>
          </g>
          <path class="cls-3" d="M1237.77,450.4c0-83.31,67.54-150.85,150.85-150.85"/>
          <path class="cls-3" d="M1306.97,450.4c0-45.09,36.55-81.64,81.64-81.64"/>
          <path class="cls-7" d="M1036.51,299.28c82.31,0,149.03,66.72,149.03,149.03"/>
          <path class="cls-7" d="M1036.51,367.65c44.55,0,80.66,36.11,80.66,80.66"/>
          <g>
            <path class="cls-4" d="M1245.29,221.45c0-115.39-93.54-208.94-208.94-208.94"/>
            <path class="cls-4" d="M1036.35,77.98c79.24,0,143.47,64.23,143.47,143.47"/>
            <path class="cls-4" d="M1036.35,143.8c42.88,0,77.65,34.76,77.65,77.65"/>
          </g>
          <path class="cls-2" d="M1178.85-5.74c0,115.39,93.54,208.94,208.94,208.94"/>
          <path class="cls-2" d="M1387.78,137.73c-79.24,0-143.47-64.23-143.47-143.47"/>
          <g>
            <path class="cls-9" d="M1036.42,12.51c-115.39,0-208.94,93.54-208.94,208.94"/>
            <path class="cls-9" d="M892.95,221.45c0-79.24,64.23-143.47,143.47-143.47"/>
          </g>
          <path class="cls-9" d="M1036.45,299.18c-42.88,0-77.65-34.76-77.65-77.65l-.03-.09c0-42.88,34.76-77.65,77.65-77.65"/>
        </g>
      </g>
    </g>
  </g>
</svg>