<?xml version="1.0" encoding="UTF-8"?>
<svg id="Layer_1" data-name="Layer 1" xmlns="http://www.w3.org/2000/svg" viewBox="0 0 783.64 967.87">
  <defs>
    <style>
      .cls-1 {
        fill: #584189;
      }

      .cls-2 {
        fill: #ab53a2;
      }

      .cls-3 {
        fill: #dfcc5f;
      }

      .cls-4 {
        fill: #dc643a;
      }

      .cls-5 {
        fill: #c983a9;
      }

      .cls-6 {
        fill: #4ea459;
      }

      .cls-7 {
        fill: #77a8ce;
      }
    </style>
  </defs>
  <path class="cls-6" d="M781.69,463.31v12.41c-5.27-.87-43.81,1.35-45.1-.51-.55-.79-.54-16.4-.78-19.19-9.14-107.51-103.11-194.29-211.28-193.51-.44.02-1.35-.51-1.35-.81v-43.72c0-.59,1.32-.77,1.86-.84,4.06-.48,12.35.26,16.75.57,129.22,9.32,233.71,114.47,239.33,244.28l.56,1.31Z"/>
  <path class="cls-7" d="M260.28,411.95c1.1-80.61-68.01-150.16-148.75-148.78v-45.78c80.39-.45,153.74,50.98,181.85,125.75,8.33,22.16,12.53,45.61,12.67,69.35h-1.09l-44.68-.54Z"/>
  <path class="cls-7" d="M183.3,413.38c1.44-38.86-32.18-71.89-70.68-71.79v-46.39c7.41.7,14.79.96,22.2,2.37,54.4,10.34,95.59,59.59,94.86,115.26l-45.28.55h-1.1Z"/>
  <path class="cls-3" d="M263.41,626.22c80.61,1.1,150.16-68.01,148.78-148.75h45.78c.45,80.39-50.98,153.74-125.75,181.85-22.16,8.33-45.61,12.53-69.35,12.67v-1.09l.54-44.68Z"/>
  <path class="cls-3" d="M262,547.22c38.35,1.42,70.94-31.75,70.85-69.74h45.78c-.69,7.32-.95,14.6-2.34,21.91-10.21,53.68-58.81,94.33-113.74,93.61l-.54-44.68v-1.09Z"/>
  <path class="cls-4" d="M783.64,707.38v44.96c0,.38-.91.73-1.36.82-3.07.56-8.05-.22-11.46-.02-60.9,3.45-118.49,33.97-156.06,81.52-29.77,37.67-46.42,84.93-46.34,133.22h-45.77c.28-45.65,11.97-90.7,34.78-130.07,46.27-79.87,133.03-131.47,226.22-130.43Z"/>
  <path class="cls-2" d="M448.92,738.02v-45.23c40.69-.26,80.43-11.63,114.71-33.23,61.77-38.92,101.17-108.39,100.52-182.03h45.77c-.01,54.32-17.07,107.73-48.59,151.68-48.59,67.74-128.27,109.75-212.4,108.82Z"/>
  <path class="cls-5" d="M262.88,76.3h45.77c-.23,40.36,11.56,80.48,33.01,114.4,38.89,61.49,108.21,101.15,181.67,100.32v45.78c-31.77-.1-63.15-5.77-92.77-17.03-82.01-31.18-144.34-103.8-162.07-189.96-3.64-17.68-5.22-35.45-5.62-53.51Z"/>
  <path class="cls-6" d="M457.8,477.4h-44.95c-.27,0-.9-.9-.83-1.36.76-5.92.93-11.83,1.91-17.73,7.08-42.66,40.48-78.37,82.33-88.78,69.73-17.33,135.08,32.61,138.66,103.76.04.85.18,4.11-.84,4.11h-44.14c-1.22,0-.72-4.17-.82-5.17-4.97-48.42-55.48-76.18-98.44-51.6-20.14,11.53-32.74,33.49-32.87,56.77Z"/>
  <path class="cls-6" d="M709.54,477.4h-44.95c-1.39,0-.69-9.07-.79-10.65-4.33-68.23-61.82-125.52-129.98-129.95-1.58-.1-10.62.54-10.62-.82v-44.14c0-1.21,8.12-.89,9.56-.84,5.25.19,11.52,1.01,16.78,1.75,90.96,12.73,160.96,92.33,160.01,184.66Z"/>
  <path class="cls-1" d="M523.09,187.24v-44.96c0-.31.92-.84,1.36-.82,76.1-.97,133.76-58.63,139.21-133.8.08-1.13-.45-6.81.82-6.81h44.14c.6,0,.78,1.33.84,1.88.3,2.45-.36,9.68-.58,12.56-7.29,96.05-89.15,172.7-185.8,171.94Z"/>
  <path class="cls-4" d="M783.64,782.04v45.23c-12.61.32-24.99,1.78-37.17,5.06-60.2,16.2-104.16,72.76-103.41,135.54h-45.77c-1.28-100.76,85.35-187.97,186.35-185.84Z"/>
  <path class="cls-4" d="M.14,408.81h45.4c.39,0,.74.92.83,1.38.57,3.1-.22,8.13-.02,11.58,3.49,61.49,34.3,119.65,82.32,157.59,38.04,30.06,85.76,46.88,134.52,46.79v46.22c-46.1-.28-91.59-12.09-131.34-35.12C51.19,590.52-.91,502.91.14,408.81Z"/>
  <path class="cls-4" d="M76.8,407.14h45.09c.32,12.57,1.78,24.91,5.04,37.06,16.15,60.02,72.53,103.84,135.13,103.09v45.63c-100.45,1.28-187.39-85.08-185.26-185.78Z"/>
  <path class="cls-2" d="M448.92,663.36v-45.23c31.42.08,62.29-10.7,86.89-30,30.36-23.83,51.11-61.05,53.72-99.96.11-1.57-.6-10.65.79-10.65h44.95c.2,31.86-8.29,63.75-23.88,91.38-32.56,57.69-95.57,95.64-162.47,94.46Z"/>
  <path class="cls-5" d="M337.53,76.3h45.23c1.09,3.42.28,7.09.55,10.62,3.18,41,25.03,79.25,58.12,103.18,23.84,17.24,52.39,26.4,81.91,26.8v45.23c-72.2.59-138.91-43.24-168.84-108.25-11.18-24.28-16.9-50.77-16.97-77.58Z"/>
  <path class="cls-1" d="M113.6,296.19v44.87c0,1.24-4.24.73-5.26.84-33.84,3.69-58.27,27.76-61.76,61.77-.1,1.02.4,5.26-.83,5.26H.88c-1.03,0-.9-3.32-.85-4.18,2.76-54.92,43.05-100.72,97.85-108.21,2.29-.31,13.48-1.51,14.8-1.09.4.13.68.41.92.74Z"/>
  <path class="cls-1" d="M523.09,65.94c32.96.17,62.07-25.78,65.38-58.59.13-1.3-.5-7.35.83-7.35h44.14c.6,0,.78,1.33.85,1.88.87,7.38-1.93,20.43-3.88,27.78-12.66,47.54-55.97,80.25-104.87,82.08-.68.03-2.42-.1-2.42-.84v-44.96Z"/>
  <path class="cls-5" d="M412.72,76.3h45.23c-.19,35.45,29.84,65.83,65.39,65.4v45.78c-10.8-.48-21.09-1.69-31.48-4.76-46.26-13.68-80.09-57.7-79.14-106.42Z"/>
  <circle class="cls-7" cx="523.69" cy="481.9" r="47.57"/>
</svg>