<?xml version="1.0" encoding="UTF-8"?>
<svg xmlns="http://www.w3.org/2000/svg" xmlns:xlink="http://www.w3.org/1999/xlink" viewBox="0 0 231.74 642.91">
  <defs>
    <style>
      .cls-1, .cls-2, .cls-3, .cls-4, .cls-5, .cls-6 {
        fill: none;
      }

      .cls-2 {
        stroke: #e6ca56;
      }

      .cls-2, .cls-7, .cls-3, .cls-4, .cls-5, .cls-6 {
        mix-blend-mode: multiply;
      }

      .cls-2, .cls-3, .cls-4, .cls-5, .cls-6 {
        stroke-miterlimit: 10;
        stroke-width: 40px;
      }

      .cls-8 {
        fill: #db6439;
      }

      .cls-9 {
        isolation: isolate;
      }

      .cls-10 {
        clip-path: url(#clippath-1);
      }

      .cls-11 {
        fill: #76a7cd;
      }

      .cls-3 {
        stroke: #77a8ce;
      }

      .cls-4 {
        stroke: #4ea459;
      }

      .cls-12 {
        fill: #77a8ce;
      }

      .cls-13 {
        fill: #4ca258;
      }

      .cls-14 {
        clip-path: url(#clippath);
      }

      .cls-5 {
        stroke: #ab53a2;
      }

      .cls-6 {
        stroke: #dc643a;
      }
    </style>
    <clipPath id="clippath">
      <rect class="cls-1" width="231.74" height="642.91"/>
    </clipPath>
    <clipPath id="clippath-1">
      <rect class="cls-1" x="-727.29" y="-85.03" width="441.96" height="443.41"/>
    </clipPath>
  </defs>
  <g class="cls-9" transform="rotate(180 115.87 321.455)">
    <g id="Layer_1" data-name="Layer 1">
      <g class="cls-14">
        <g class="cls-7">
          <path class="cls-5" d="M209.62,291.55C209.62,176.16,116.08,82.62.69,82.62"/>
          <path class="cls-5" d="M.69,148.08c79.24,0,143.47,64.23,143.47,143.47"/>
          <path class="cls-5" d="M.69,213.9c42.88,0,77.65,34.76,77.65,77.65"/>
        </g>
        <path class="cls-4" d="M228.97,442.4c-83.31,0-150.85-67.54-150.85-150.85"/>
        <path class="cls-4" d="M228.41,373.19c-46.53,0-84.25-36.55-84.25-81.64"/>
        <path class="cls-12" d="M-1.01,262.24c16.51,0,29.89,13.38,29.89,29.89s-13.38,29.89-29.89,29.89"/>
        <g>
          <path class="cls-3" d="M144.02,291.53c0,79.24-64.23,143.47-143.47,143.47"/>
          <path class="cls-3" d="M78.2,291.53c0,42.88-34.76,77.65-77.65,77.65"/>
        </g>
        <g>
          <path class="cls-6" d="M209.6,643.89c0-115.39-93.54-208.94-208.94-208.94"/>
          <path class="cls-6" d="M.66,500.42c79.24,0,143.47,64.23,143.47,143.47"/>
        </g>
        <path class="cls-6" d="M.57,566.27l.09-.03c42.88,0,77.65,34.76,77.65,77.65"/>
        <path class="cls-2" d="M149.72-.8c0,82.31-66.72,149.03-149.03,149.03"/>
        <path class="cls-2" d="M81.63-.47c0,45.91-36.11,83.13-80.66,83.13"/>
      </g>
      <g class="cls-10">
        <g>
          <g class="cls-7">
            <path class="cls-13" d="M-44.01,360.12v-39.02c101.63,0,184.31-82.68,184.31-184.31h39.02c0,59.65-23.23,115.74-65.41,157.92-42.18,42.18-98.26,65.41-157.92,65.41Z"/>
          </g>
          <g class="cls-7">
            <path class="cls-13" d="M-44.01,296.26v-39.02c66.41,0,120.45-54.03,120.45-120.45h39.02c0,87.93-71.54,159.47-159.47,159.47Z"/>
          </g>
          <g class="cls-7">
            <path class="cls-13" d="M-44.01,232.05v-39.02c31.01,0,56.24-25.23,56.24-56.24h39.02c0,52.52-42.73,95.26-95.26,95.26Z"/>
          </g>
          <g>
            <g class="cls-7">
              <path class="cls-11" d="M115.61,136.68h-39.02c0-66.41-54.03-120.45-120.45-120.45V-22.79c87.93,0,159.47,71.54,159.47,159.47Z"/>
            </g>
            <g class="cls-7">
              <path class="cls-11" d="M51.4,136.68H12.38c0-31.01-25.23-56.24-56.24-56.24v-39.02c52.53,0,95.26,42.73,95.26,95.26Z"/>
            </g>
          </g>
          <g>
            <g class="cls-7">
              <path class="cls-8" d="M115.3,136.84h-39.02c0-59.65,23.23-115.74,65.41-157.92,42.18-42.18,98.26-65.41,157.92-65.41v39.02c-101.63,0-184.31,82.68-184.31,184.31Z"/>
            </g>
            <g class="cls-7">
              <path class="cls-8" d="M179.16,136.84h-39.02c0-87.93,71.54-159.47,159.47-159.47V16.39c-66.41,0-120.45,54.03-120.45,120.45Z"/>
            </g>
          </g>
          <g class="cls-7">
            <path class="cls-8" d="M299.64,232.18c-51.4,0-93.42-40.91-95.2-91.88l-.06-.17-.03-3.29c0-52.53,42.73-95.26,95.26-95.26v39.02c-30.55,0-55.49,24.49-56.22,54.87v1.46c.01,31.01,25.24,56.24,56.25,56.24v39.02Z"/>
          </g>
        </g>
      </g>
    </g>
  </g>
</svg>