<?xml version="1.0" encoding="UTF-8"?>
<svg id="Layer_1" data-name="Layer 1" xmlns="http://www.w3.org/2000/svg" viewBox="0 0 1024 956.38">
  <defs>
    <style>
      .cls-1 {
        fill: #f7efdb;
      }
    </style>
  </defs>
  <path class="cls-1" d="M172.96,458.1c-34.28,0-64.4-6.96-90.37-20.88-25.97-13.92-46.23-33.34-60.77-58.28C7.27,354.01,0,324.83,0,291.37c0-24.31,4.21-46.64,12.62-67,8.42-20.36,20.26-37.97,35.53-52.82,15.27-14.85,33.24-26.38,53.91-34.59,20.67-8.2,43.36-12.31,68.09-12.31,27.21,0,51.37,4.78,72.45,14.34,21.08,9.56,38.59,22.9,52.51,40.04,13.91,17.14,23.63,37.24,29.14,60.3,5.5,23.06,5.97,48.2,1.4,75.41H84.45c0,14.34,3.79,26.91,11.37,37.71,7.58,10.8,18.28,19.27,32.1,25.4,13.81,6.13,29.96,9.19,48.46,9.19s35.73-2.49,52.35-7.48c16.62-4.99,32.3-12.57,47.06-22.75l30.23,62.33c-9.97,7.69-22.44,14.49-37.39,20.41-14.96,5.92-30.8,10.49-47.52,13.71-16.73,3.22-32.78,4.83-48.15,4.83ZM89.75,251.8h148.65c-.62-18.49-7.12-33.08-19.48-43.78-12.36-10.7-29.35-16.05-50.95-16.05s-39.53,5.35-53.76,16.05c-14.23,10.7-22.39,25.29-24.46,43.78Z"/>
  <path class="cls-1" d="M504.21,458.1c-30.34,0-57.34-7.01-81.03-21.04-23.68-14.02-42.28-33.6-55.78-58.74-13.51-25.14-20.26-54.12-20.26-86.95,0-23.47,3.9-45.29,11.69-65.44,7.79-20.15,18.75-37.81,32.88-52.98,14.13-15.16,30.85-27.01,50.17-35.53,19.32-8.52,40.61-12.78,63.88-12.78,25.55,0,48.25,5.04,68.09,15.12,19.84,10.08,36.93,24.77,51.26,44.09l-20.57,20.88V0h91v448.75h-79.15v-79.78l12.47,20.57c-9.77,20.15-25.24,36.62-46.43,49.39-21.19,12.78-47.27,19.17-78.22,19.17ZM521.04,379.25c16,0,30.33-3.58,43.01-10.75,12.67-7.17,22.64-17.3,29.92-30.39,7.27-13.09,10.91-28.67,10.91-46.74s-3.58-33.66-10.75-46.74c-7.17-13.09-17.09-23.22-29.76-30.38-12.68-7.17-27.11-10.75-43.32-10.75s-30.65,3.58-43.32,10.75c-12.67,7.17-22.65,17.3-29.92,30.38-7.28,13.09-10.91,28.67-10.91,46.74s3.63,33.66,10.91,46.74c7.27,13.09,17.24,23.22,29.92,30.39,12.67,7.17,27.11,10.75,43.32,10.75Z"/>
  <path class="cls-1" d="M25.87,947.96v-445.63h79.16v38.64c12.04-14.34,27.37-25.91,45.97-34.75,18.59-8.83,40.67-13.25,66.22-13.25,30.33,0,57.34,7.01,81.02,21.04,23.68,14.02,42.27,33.61,55.78,58.74,13.5,25.14,20.26,54.12,20.26,86.94,0,23.48-3.9,45.3-11.69,65.44-7.79,20.15-18.75,37.81-32.88,52.98-14.13,15.17-30.85,27.01-50.17,35.53-19.32,8.52-40.62,12.78-63.89,12.78-20.57,0-39.11-3.43-55.63-10.28-16.52-6.86-31.01-16.41-43.47-28.67v160.49H25.87ZM200.38,747.58c16.2,0,30.64-3.58,43.32-10.75,12.67-7.17,22.64-17.3,29.92-30.39,7.27-13.09,10.91-28.67,10.91-46.74s-3.64-33.66-10.91-46.74c-7.27-13.09-17.25-23.22-29.92-30.38-12.67-7.17-27.11-10.75-43.32-10.75s-30.33,3.58-43,10.75c-12.68,7.17-22.65,17.3-29.92,30.38-7.27,13.09-10.91,28.67-10.91,46.74s3.58,33.66,10.75,46.74c7.17,13.09,17.08,23.22,29.76,30.39,12.67,7.17,27.11,10.75,43.32,10.75Z"/>
  <path class="cls-1" d="M532.26,826.11c-28.05,0-53.91-3.69-77.6-11.06s-43.94-17.5-60.77-30.38l29.6-63.57c16.41,11.22,34.17,20,53.29,26.33,19.11,6.34,37.5,9.5,55.16,9.5s30.9-2.65,40.36-7.95c9.45-5.3,14.18-12.93,14.18-22.9,0-8.93-4.21-15.53-12.62-19.79-8.41-4.26-24.67-8.77-48.77-13.56-41.55-7.68-71.88-19.58-91-35.68-19.12-16.1-28.67-38.28-28.67-66.53,0-19.95,5.56-37.5,16.67-52.67,11.11-15.16,26.43-26.95,45.97-35.37,19.53-8.41,41.96-12.62,67.31-12.62s48.46,3.38,70.59,10.13c22.12,6.75,41.08,16.16,56.87,28.2l-28.67,63.88c-8.31-6.65-17.82-12.46-28.51-17.45-10.7-4.99-21.92-8.83-33.66-11.53-11.74-2.7-23.22-4.05-34.44-4.05-15.17,0-27.42,2.49-36.77,7.48-9.35,4.98-14.02,12.05-14.02,21.19s4.26,15.89,12.78,20.25c8.52,4.36,24.41,9.15,47.68,14.34,43.42,9.14,74.32,21.24,92.71,36.3,18.39,15.07,27.58,36.2,27.58,63.42,0,20.99-5.66,39.27-16.98,54.85-11.33,15.58-27.11,27.68-47.37,36.3-20.26,8.62-43.89,12.93-70.9,12.93Z"/>
  <path class="cls-1" d="M759.43,956.38c-13.3,0-26.39-1.36-39.27-4.05-12.88-2.7-25.04-7.17-36.46-13.4l19.63-76.66c6.65,3.74,13.97,6.65,21.97,8.73,7.99,2.07,15.42,3.12,22.28,3.12,12.47,0,22.75-2.7,30.85-8.1,8.1-5.41,14.13-14.23,18.07-26.49l6.54-19.95-122.78-317.24h98.79l75.41,225,73.23-225h96.29l-132.13,350.58c-10.39,26.18-22.34,46.79-35.84,61.86-13.51,15.06-28.36,25.76-44.56,32.1-16.21,6.34-33.56,9.51-52.04,9.51Z"/>
</svg>